<?xml version="1.0" encoding="UTF-8"?> <svg xmlns="http://www.w3.org/2000/svg" width="126" height="24" viewBox="0 0 126 24" fill="none"><g id="Aligned"><path id="path202" d="M52.1997 6.3999C53.9672 6.3999 55.4 4.96694 55.4 3.1999C55.4 1.43234 53.9672 -9.82285e-05 52.1997 -9.82285e-05C50.4323 -9.82285e-05 49 1.43234 49 3.1999C49 4.96694 50.4323 6.3999 52.1997 6.3999Z" fill="#DB7E52"></path><path id="path206" d="M54.8244 14.1616C54.4403 13.4675 53.9171 12.8815 53.2552 12.4028C52.5928 11.9235 51.8225 11.5309 50.9443 11.2228C50.0655 10.9153 49.1323 10.6396 48.1435 10.3946L46.6754 10.0434C46.0511 9.89642 45.4585 9.7494 44.8972 9.60346C44.3353 9.45698 43.8412 9.29057 43.4137 9.10532C42.9868 8.92006 42.6461 8.70465 42.3916 8.46015C42.1371 8.21619 42.0101 7.92323 42.0101 7.58072C42.0101 7.21936 42.1207 6.91617 42.3413 6.67221C42.562 6.42772 42.845 6.23061 43.191 6.07821C43.5359 5.92742 43.7666 5.84017 44.1936 5.77663C44.1994 5.77501 44.2052 5.7734 44.211 5.77232C45.2395 5.58975 45.8199 4.38613 45.5469 3.26059C45.3474 2.43663 44.7274 1.82755 44.0079 1.66491C43.8158 1.60352 43.6074 1.58251 43.3926 1.6159C42.7106 1.72361 42.0583 1.88679 41.4345 2.10705C40.8103 2.32623 40.2294 2.60735 39.6918 2.94932C39.1548 3.29182 38.6866 3.6968 38.2888 4.16587C37.8899 4.63493 37.5756 5.17239 37.3449 5.7777C37.1148 6.38356 37 7.06319 37 7.81498C37 8.55816 37.1196 9.21733 37.3598 9.7941C37.5994 10.3703 37.9232 10.8782 38.3316 11.3176C38.7395 11.7576 39.2167 12.1389 39.7643 12.4615C40.3114 12.7835 40.8944 13.0652 41.5134 13.3037C42.1324 13.5428 42.7683 13.7486 43.4211 13.9198C44.074 14.0905 44.7073 14.2392 45.322 14.3663C45.9643 14.5127 46.5912 14.6619 47.2007 14.8133C47.8102 14.9651 48.3525 15.1434 48.8281 15.3486C49.3026 15.5532 49.682 15.8025 49.965 16.096C50.2481 16.389 50.3898 16.7509 50.3898 17.1801C50.3898 17.6594 50.2576 18.0499 49.9941 18.3525C49.7301 18.6557 49.3915 18.8954 48.9789 19.0709C48.5667 19.2465 48.117 19.366 47.6287 19.429V19.4285C47.6287 19.4285 47.6277 19.429 47.6266 19.4296H47.6255V19.4301C46.6838 19.6665 46.0701 20.6811 46.2204 21.7555C46.359 22.7437 47.1044 23.4923 47.9678 23.5801C48.0694 23.5984 48.1742 23.607 48.2826 23.5935L48.2948 23.5919C49.0482 23.4993 49.773 23.3458 50.4687 23.1309C51.1649 22.9155 51.8125 22.6349 52.413 22.2876C53.0124 21.9413 53.533 21.5062 53.9747 20.9833C54.4165 20.4614 54.7641 19.8475 55.0186 19.1447C55.273 18.4408 55.4 17.6298 55.4 16.7116C55.4 15.7051 55.2085 14.8547 54.8244 14.1616Z" fill="#865E9B"></path><path id="path210" d="M8.92994 1.59983C9.09572 1.59983 9.26587 1.60199 9.44204 1.60794C10.5341 1.64526 11.3996 2.5376 11.3996 3.6176C11.3996 4.70084 10.5456 5.59588 9.45134 5.65375C7.3652 5.76462 5.20465 6.86625 5.20465 9.04788V21.1902C5.20465 22.3005 4.29426 23.1998 3.17158 23.1998H2.63268C1.50946 23.1998 0.599609 22.3005 0.599609 21.1902V8.96514C0.599609 5.90306 2.27377 3.66843 4.61815 2.51002C5.24569 2.17904 5.95803 1.97191 6.7114 1.80642C6.79511 1.80642 6.87882 1.76532 6.96198 1.76532C7.38107 1.64093 8.30186 1.59983 8.92994 1.59983Z" fill="#865E9B"></path><path id="path214" d="M91.7307 1.59983C91.8965 1.59983 92.0667 1.60199 92.2428 1.60794C93.3349 1.64526 94.2004 2.5376 94.2004 3.6176C94.2004 4.70084 93.3463 5.59588 92.2521 5.65375C90.166 5.76462 88.0054 6.86625 88.0054 9.04788V21.1902C88.0054 22.3005 87.095 23.1998 85.9724 23.1998H85.4335C84.3102 23.1998 83.4004 22.3005 83.4004 21.1902V8.96514C83.4004 5.90306 85.0746 3.66843 87.4189 2.51002C88.0465 2.17904 88.7588 1.97191 89.5122 1.80642C89.5959 1.80642 89.6796 1.76532 89.7628 1.76532C90.1818 1.64093 91.1026 1.59983 91.7307 1.59983Z" fill="#865E9B"></path><g id="Group 1"><path id="path218" d="M109.492 19.5449L101.587 2.99625C101.157 2.07364 100.204 1.51986 99.1996 1.60909C97.5459 1.75511 96.5312 3.5111 97.2171 5.0405L104.894 21.6957C105.338 22.6854 106.351 23.2846 107.421 23.1899C109.177 23.0342 110.243 21.1576 109.492 19.5449Z" fill="#865E9B"></path><path id="path222" d="M104.908 19.5449L112.813 2.99625C113.243 2.07364 114.196 1.51986 115.2 1.60909C116.854 1.75511 117.868 3.5111 117.183 5.0405L109.506 21.6957C109.062 22.6854 108.049 23.2846 106.979 23.1899C105.223 23.0342 104.157 21.1576 104.908 19.5449Z" fill="#865E9B"></path></g><path id="path226" d="M123 23.1998C124.325 23.1998 125.4 22.0824 125.4 20.7041V4.09554C125.4 2.71722 124.325 1.59983 123 1.59983C121.674 1.59983 120.6 2.71722 120.6 4.09554V20.7041C120.6 22.0824 121.674 23.1998 123 23.1998Z" fill="#865E9B"></path><path id="path230" d="M18.6123 10.4777C18.2744 10.4777 18.0113 10.1583 18.0916 9.82306C18.5671 7.83411 20.4668 5.61772 23.6651 5.61772C26.9017 5.61772 28.7354 7.86985 29.1658 9.83335C29.2386 10.1658 28.9772 10.4777 28.643 10.4777H18.6123ZM34.2 11.5819C34.2 6.14785 30.0814 1.2001 23.7517 1.2001C17.7255 1.2001 13 6.05959 13 12.4218C13 19.0487 17.9423 23.6001 24.0115 23.6001C27.8703 23.6001 30.905 22.0091 32.7696 19.4462L32.7658 19.4424C33.3291 18.8213 33.3238 17.8558 32.7441 17.2845C32.3344 16.8811 31.8296 16.6336 31.1473 16.7224C30.7642 16.7728 30.405 16.9358 30.0814 17.1513C29.1828 17.7497 26.5786 19.3579 24.5318 19.3579C21.2612 19.3579 18.8711 17.4881 18.1389 14.9186C18.0411 14.5759 18.2999 14.2331 18.65 14.2331H31.5554C33.116 14.2331 34.2 13.4382 34.2 11.5819Z" fill="#865E9B"></path><path id="path234" d="M63.8115 10.4777C63.4736 10.4777 63.2106 10.1583 63.2908 9.82306C63.7664 7.83411 65.666 5.61772 68.8643 5.61772C72.1009 5.61772 73.9346 7.86985 74.365 9.83335C74.4378 10.1658 74.1764 10.4777 73.8422 10.4777H63.8115ZM79.3992 11.5819C79.3992 6.14785 75.2806 1.2001 68.9509 1.2001C62.9247 1.2001 58.1992 6.05959 58.1992 12.4218C58.1992 19.0487 63.1415 23.6001 69.2108 23.6001C73.0696 23.6001 76.1042 22.0091 77.9688 19.4462L77.9651 19.4424C78.5283 18.8213 78.523 17.8558 77.9433 17.2845C77.5336 16.8811 77.0288 16.6336 76.3465 16.7224C75.9634 16.7728 75.6042 16.9358 75.2806 17.1513C74.382 17.7497 71.7778 19.3579 69.731 19.3579C66.4604 19.3579 64.0703 17.4881 63.3381 14.9186C63.2403 14.5759 63.4991 14.2331 63.8493 14.2331H76.7546C78.3152 14.2331 79.3992 13.4382 79.3992 11.5819Z" fill="#865E9B"></path></g></svg> 